<?xml version="1.0" standalone="no"?>
<!DOCTYPE svg PUBLIC "-//W3C//DTD SVG 20010904//EN"
 "http://www.w3.org/TR/2001/REC-SVG-20010904/DTD/svg10.dtd">
<svg version="1.0" xmlns="http://www.w3.org/2000/svg"
 width="300.000000pt" height="86.000000pt" viewBox="0 0 300.000000 86.000000"
 preserveAspectRatio="xMidYMid meet">
<metadata>
Created by potrace 1.10, written by Peter Selinger 2001-2011
</metadata>
<g transform="translate(0.000000,86.000000) scale(0.100000,-0.100000)"
fill="#000000" stroke="none">
<path d="M2415 583 c-22 -2 -78 -10 -124 -18 -47 -8 -154 -20 -239 -26 -141
-11 -156 -10 -167 5 -26 34 -35 17 -35 -63 0 -78 15 -117 27 -71 6 22 9 23 97
17 50 -4 136 -14 191 -22 193 -30 241 -34 390 -34 149 -1 261 10 321 30 63 20
71 128 12 157 -55 26 -313 40 -473 25z"/>
<path d="M86 561 c-9 -14 34 -132 65 -177 30 -44 89 -97 149 -133 35 -21 42
-21 650 -21 l615 0 53 36 c30 19 71 53 92 75 42 44 90 131 90 164 0 12 5 26
11 32 6 6 8 16 5 22 -9 14 -1722 16 -1730 2z"/>
</g>
</svg>
